<?xml version="1.0" encoding="UTF-8"?> <svg xmlns="http://www.w3.org/2000/svg" width="79.168" height="39.958" viewBox="0 0 79.168 39.958"><defs><style>.a{fill:#f42c37;stroke:#f42c37;stroke-width:0.5px;}</style></defs><g transform="translate(-2.45 -26.05)"><path class="a" d="M34,65.758H73.791a7.6,7.6,0,0,0,7.575-7.575V33.875A7.6,7.6,0,0,0,73.791,26.3H34a7.6,7.6,0,0,0-7.575,7.575V58.183A7.658,7.658,0,0,0,34,65.758ZM28.506,33.875A5.489,5.489,0,0,1,34,28.381H73.791a5.489,5.489,0,0,1,5.494,5.494V58.183a5.489,5.489,0,0,1-5.494,5.494H34a5.489,5.489,0,0,1-5.494-5.494ZM34.5,56.518,47.236,45.28,34.583,35.457a1.008,1.008,0,1,1,1.249-1.582L53.979,47.944,72.043,33.792a1.008,1.008,0,0,1,1.249,1.582L60.805,45.2,73.458,56.518a1.036,1.036,0,0,1,.083,1.415.9.9,0,0,1-.749.333.945.945,0,0,1-.666-.25L59.14,46.445l-4.578,3.58a.8.8,0,0,1-1.165,0l-4.412-3.413-13.153,11.4a.945.945,0,0,1-.666.25.9.9,0,0,1-.749-.333A1.031,1.031,0,0,1,34.5,56.518ZM22.429,46.029a.962.962,0,0,1-1,1H9.693a1,1,0,0,1,0-2H21.43A1.012,1.012,0,0,1,22.429,46.029ZM2.7,38.2a.962.962,0,0,1,1-1H21.347a1,1,0,1,1,0,2H3.782A.983.983,0,0,1,2.7,38.2Zm19.729,15.65a.962.962,0,0,1-1,1H13.688a1,1,0,0,1,0-2H21.43A.96.96,0,0,1,22.429,53.854Z" transform="translate(0 0)"></path></g></svg> 